Patient4_TMGait_0pt4_01_right_01_GRF.mot
version=1
nRows=72
nColumns=19
inDegrees=no
endheader
time	F1x	F1y	F1z	M1x	M1y	M1z	F2x	F2y	F2z	M2x	M2y	M2z	EC1x	EC1y	EC1z	EC2x	EC2y	EC2z
0.81	17.1755	708.0418	58.8183	-261.7444	-51.6002	717.3907	11.9914	8.3228	-7.9248	4.7682	2.4226	9.8549	-0.0592	0.0182	-0.0073	-0.0462	0.0165	0.9585
0.82279	19.4461	711.2431	57.8165	-262.442	-49.0834	719.241	7.78	6.0841	-5.4569	3.4398	1.8304	7.2497	-0.0592	0.0182	-0.0073	-0.0462	0.0165	0.9585
0.83557	21.5819	715.6591	56.833	-263.5737	-46.6532	721.9596	4.2505	4.2644	-3.3215	2.3228	1.2965	5.1249	-0.0592	0.0182	-0.0073	-0.0462	0.0165	0.9585
0.84836	23.4321	721.5213	55.9632	-265.2513	-44.4974	725.8641	1.5864	2.9507	-1.6677	1.4846	0.87436	3.5961	-0.0592	0.0182	-0.0073	-0.0462	0.0165	0.9585
0.86114	24.9589	728.8145	55.2619	-267.4889	-42.6969	731.0251	-0.24522	2.101	-0.50238	0.91983	0.57696	2.6177	-0.0592	0.0182	-0.0073	-0.0462	0.0165	0.9585
0.87393	26.2396	737.2202	54.7352	-270.1879	-41.2282	737.1709	-1.3807	1.6225	0.229	0.58504	0.40584	2.0782	-0.0592	0.0182	-0.0073	-0.0462	0.0165	0.9585
0.88671	27.3989	746.1778	54.366	-273.1577	-40.0168	743.7586	-1.9959	1.4058	0.61788	0.41864	0.34243	1.8441	-0.0592	0.0182	-0.0073	-0.0462	0.0165	0.9585
0.8995	28.6041	755.0093	54.127	-276.1582	-38.9654	750.0948	-2.2708	1.3133	0.75506	0.3484	0.36944	1.7495	-0.0592	0.0182	-0.0073	-0.0462	0.0165	0.9585
0.91229	29.9912	763.0538	53.9975	-278.9452	-37.9954	755.5148	-2.3535	1.2127	0.7293	0.30523	0.458	1.6425	-0.0592	0.0182	-0.0073	-0.0462	0.0165	0.9585
0.92507	31.6468	769.7854	53.9715	-281.3132	-37.0632	759.5036	-2.3383	0.96937	0.60606	0.22218	0.58232	1.36	-0.0592	0.0182	-0.0073	-0.0462	0.0165	0.9585
0.93786	33.6048	774.8779	54.0667	-283.1176	-36.1629	761.7746	-2.2956	0.44587	0.44549	0.03643	0.71428	0.7401	-0.0592	0.0182	-0.0073	-0.0462	0.0165	0.9585
0.95064	35.8661	778.2059	54.3072	-284.2793	-35.3098	762.2622	-2.2377	-0.48048	0.28442	-0.3043	0.82964	-0.36453	-0.0592	0.0182	-0.0073	-0.0462	0.0165	0.9585
0.96343	38.3732	779.8059	54.7089	-284.7756	-34.5344	761.0745	-2.1427	-1.8878	0.15836	-0.83369	0.89018	-2.0445	-0.0592	0.0182	-0.0073	-0.0462	0.0165	0.9585
0.97621	41.0332	779.7931	55.2642	-284.6154	-33.8614	758.4014	-1.9616	-3.8079	0.098345	-1.5626	0.84721	-4.3323	-0.0592	0.0182	-0.0073	-0.0462	0.0165	0.9585
0.989	43.7238	778.2817	55.927	-283.8117	-33.2902	754.4312	-1.6032	-6.1389	0.13386	-2.4498	0.63308	-7.1044	-0.0592	0.0182	-0.0073	-0.0462	0.0165	0.9585
1.0018	46.2962	775.2809	56.6451	-282.3502	-32.8283	749.2591	-0.94885	-8.5776	0.29543	-3.377	0.16834	-9.9956	-0.0592	0.0182	-0.0073	-0.0462	0.0165	0.9585
1.0146	48.5838	770.6778	57.3917	-280.18	-32.5129	742.8653	0.12221	-10.5579	0.62678	-4.1239	-0.64166	-12.3343	-0.0592	0.0182	-0.0073	-0.0462	0.0165	0.9585
1.0274	50.4383	764.2897	58.1719	-277.2262	-32.405	735.1526	1.7293	-11.127	1.1676	-4.3262	-1.8872	-13.0005	-0.0592	0.0182	-0.0073	-0.0462	0.0165	0.9585
1.0401	51.7509	755.9196	59.0009	-273.4077	-32.5701	725.9711	3.9512	-8.8994	1.9475	-3.4559	-3.6262	-10.3734	-0.0592	0.0182	-0.0073	-0.0462	0.0165	0.9585
1.0529	52.4572	745.3405	59.8606	-268.6375	-33.0298	715.1148	6.7356	-2.0525	2.9682	-0.81722	-5.8315	-2.3081	-0.0592	0.0182	-0.0073	-0.0462	0.0165	0.9585
1.0657	52.5417	732.2108	60.6585	-262.8017	-33.7172	702.2478	9.8618	11.603	4.1694	4.4231	-8.332	13.7722	-0.0592	0.0182	-0.0073	-0.0462	0.0165	0.9585
1.0785	52.0196	716.0049	61.2434	-255.7347	-34.498	686.8462	12.8094	34.3418	5.3899	13.1283	-10.7265	40.5522	-0.0592	0.0182	-0.0073	-0.0462	0.0165	0.9585
1.0913	50.9088	695.9627	61.401	-247.2055	-35.1775	668.1567	14.6469	67.9913	6.3287	25.9881	-12.2974	80.1955	-0.0592	0.0182	-0.0073	-0.0462	0.0165	0.9585
1.1041	49.1753	671.1614	60.8776	-236.9451	-35.5329	645.2673	13.9915	113.1637	6.4909	43.2212	-11.9415	133.4345	-0.0592	0.0182	-0.0073	-0.0462	0.0165	0.9585
1.1169	46.7731	640.7738	59.3785	-224.7394	-35.3029	617.3337	9.5117	168.5266	5.2389	64.2844	-8.4162	198.7368	-0.0592	0.0182	-0.0073	-0.0462	0.0165	0.9585
1.1296	43.6977	604.4174	56.6594	-210.5481	-34.2532	583.9148	1.2269	230.5254	1.8176	87.7532	-0.86422	271.9554	-0.0592	0.0182	-0.0073	-0.0462	0.0165	0.9585
1.1424	40.0578	562.3974	52.6324	-194.5801	-32.2479	545.1655	-9.1546	293.9398	-4.1059	111.5927	10.3668	346.8537	-0.0592	0.0182	-0.0073	-0.0462	0.0165	0.9585
1.1552	36.0721	515.7389	47.4823	-177.2793	-29.3488	501.8827	-19.7891	354.0309	-11.9583	134.0042	23.879	417.6507	-0.0592	0.0182	-0.0073	-0.0462	0.0165	0.9585
1.168	32.0073	465.8135	41.6186	-159.1741	-25.8022	455.1893	-29.3983	408.2826	-20.954	154.0665	38.2297	481.2646	-0.0592	0.0182	-0.0073	-0.0462	0.0165	0.9585
1.1808	27.9685	413.8695	35.5428	-140.7001	-21.997	406.1513	-37.2688	455.9695	-29.7972	171.5907	51.6719	536.8109	-0.0592	0.0182	-0.0073	-0.0462	0.0165	0.9585
1.1936	23.884	360.9902	29.727	-122.1892	-18.3722	355.7637	-43.2594	497.3536	-37.6206	186.7647	63.1173	584.6533	-0.0592	0.0182	-0.0073	-0.0462	0.0165	0.9585
1.2064	19.6055	308.387	24.5088	-103.9938	-15.2835	305.225	-47.3885	533.4418	-43.7811	200.044	71.8574	625.9562	-0.0592	0.0182	-0.0073	-0.0462	0.0165	0.9585
1.2191	15.0033	257.4847	20.0806	-86.5355	-12.9639	255.9853	-49.7746	565.7534	-48.3618	212.0216	78.0199	662.4818	-0.0592	0.0182	-0.0073	-0.0462	0.0165	0.9585
1.2319	10.029	209.8878	16.4968	-70.3018	-11.5006	209.6801	-50.5979	595.8056	-51.603	223.2641	81.9837	695.9781	-0.0592	0.0182	-0.0073	-0.0462	0.0165	0.9585
1.2447	4.7711	167.1321	13.7462	-55.7682	-10.8799	167.8775	-50.196	624.5475	-54.0339	234.0964	84.4752	727.5883	-0.0592	0.0182	-0.0073	-0.0462	0.0165	0.9585
1.2575	-0.51791	130.3438	11.7583	-43.288	-10.9698	131.7299	-48.9583	652.1973	-56.018	244.5615	86.0779	757.6005	-0.0592	0.0182	-0.0073	-0.0462	0.0165	0.9585
1.2703	-5.5038	99.9457	10.4097	-32.9909	-11.5426	101.7059	-47.3185	678.3746	-57.9187	254.4805	87.3637	785.6452	-0.0592	0.0182	-0.0073	-0.0462	0.0165	0.9585
1.2831	-9.8043	75.5891	9.477	-24.7588	-12.2524	77.5003	-45.6316	702.5018	-59.8106	263.618	88.5659	811.1113	-0.0592	0.0182	-0.0073	-0.0462	0.0165	0.9585
1.2959	-13.067	56.393	8.7198	-18.2981	-12.7419	58.2901	-44.0809	724.0393	-61.7543	271.7626	89.8158	833.4033	-0.0592	0.0182	-0.0073	-0.0462	0.0165	0.9585
1.3086	-14.9872	41.3165	7.9033	-13.2627	-12.6821	43.0761	-42.7579	742.5467	-63.6368	278.7574	91.0275	852.0255	-0.0592	0.0182	-0.0073	-0.0462	0.0165	0.9585
1.3214	-15.3897	29.4174	6.8917	-9.3337	-11.8885	30.9659	-41.6466	757.6848	-65.3717	284.4926	92.0967	866.5885	-0.0592	0.0182	-0.0073	-0.0462	0.0165	0.9585
1.3342	-14.2514	19.9639	5.6348	-6.259	-10.3165	21.2566	-40.6993	769.2869	-66.7962	288.9214	92.8362	876.9134	-0.0592	0.0182	-0.0073	-0.0462	0.0165	0.9585
1.347	-11.8499	12.527	4.221	-3.8826	-8.1569	13.5452	-39.8533	777.2803	-67.8307	292.0317	93.139	882.9297	-0.0592	0.0182	-0.0073	-0.0462	0.0165	0.9585
1.3598	-8.8598	6.9926	2.8352	-2.1456	-5.822	7.7497	-39.0613	781.7826	-68.3883	293.876	92.9048	884.7896	-0.0592	0.0182	-0.0073	-0.0462	0.0165	0.9585
1.3726	-5.9644	3.2409	1.6789	-0.98823	-3.7338	3.7874	-38.2236	783.1378	-68.4604	294.5862	92.097	882.8915	-0.0592	0.0182	-0.0073	-0.0462	0.0165	0.9585
1.3854	-3.5294	0.97334	0.80823	-0.30288	-2.0704	1.3828	-37.2261	781.9981	-68.015	294.4084	90.6569	877.9729	-0.0592	0.0182	-0.0073	-0.0462	0.0165	0.9585
1.3981	-1.6813	-0.18433	0.21568	0.033465	-0.87048	0.14697	-35.9435	779.2828	-67.0954	293.6811	88.599	871.0736	-0.0592	0.0182	-0.0073	-0.0462	0.0165	0.9585
1.4109	-0.41425	-0.57959	-0.14572	0.13262	-0.09083	-0.29094	-34.2688	775.9925	-65.7693	292.7664	85.9678	863.3309	-0.0592	0.0182	-0.0073	-0.0462	0.0165	0.9585
1.4237	0.36815	-0.50097	-0.32667	0.085629	0.34844	-0.24322	-32.1748	772.9676	-64.1676	291.9623	82.8974	855.7255	-0.0592	0.0182	-0.0073	-0.0462	0.0165	0.9585
1.4365	0.7768	-0.15367	-0.38124	-0.043417	0.5399	0.087132	-29.689	770.7968	-62.4104	291.4727	79.5351	848.9533	-0.0592	0.0182	-0.0073	-0.0462	0.0165	0.9585
1.4493	0.92665	0.30243	-0.35777	-0.20541	0.57197	0.52906	-26.8875	769.7842	-60.6485	291.3967	76.0701	843.3926	-0.0592	0.0182	-0.0073	-0.0462	0.0165	0.9585
1.4621	0.90198	0.77647	-0.2938	-0.37096	0.50982	0.98479	-23.8429	769.9728	-58.9883	291.743	72.65	839.1114	-0.0592	0.0182	-0.0073	-0.0462	0.0165	0.9585
1.4749	0.78061	1.1997	-0.21833	-0.51586	0.40386	1.3808	-20.6156	771.1921	-57.5298	292.4438	69.4075	835.9306	-0.0592	0.0182	-0.0073	-0.0462	0.0165	0.9585
1.4876	0.60489	1.5138	-0.14778	-0.61877	0.28053	1.6732	-17.2609	773.1056	-56.3316	293.3717	66.4254	833.4831	-0.0592	0.0182	-0.0073	-0.0462	0.0165	0.9585
1.5004	0.39662	1.6697	-0.088272	-0.66073	0.15098	1.8192	-13.8386	775.2349	-55.4476	294.3485	63.7754	831.2525	-0.0592	0.0182	-0.0073	-0.0462	0.0165	0.9585
1.5132	0.17648	1.6013	-0.03709	-0.62077	0.020342	1.7488	-10.394	777.0203	-54.87	295.1681	61.4587	828.6475	-0.0592	0.0182	-0.0073	-0.0462	0.0165	0.9585
1.526	-0.046787	1.2299	0.0033492	-0.47158	-0.10484	1.3683	-6.941	777.8774	-54.5492	295.6167	59.4204	825.0657	-0.0592	0.0182	-0.0073	-0.0462	0.0165	0.9585
1.5388	-0.2539	0.47509	0.032309	-0.18364	-0.21581	0.56242	-3.5005	777.2605	-54.3721	295.4969	57.543	819.962	-0.0592	0.0182	-0.0073	-0.0462	0.0165	0.9585
1.5516	-0.43512	-0.7294	0.045452	0.26733	-0.299	-0.75363	-0.063224	774.759	-54.2358	294.657	55.7091	812.9375	-0.0592	0.0182	-0.0073	-0.0462	0.0165	0.9585
1.5644	-0.54846	-2.4337	0.039711	0.89655	-0.33447	-2.6513	3.3892	770.2101	-54.0416	293.0296	53.8097	803.8626	-0.0592	0.0182	-0.0073	-0.0462	0.0165	0.9585
1.5771	-0.54099	-4.5892	0.0004545	1.6874	-0.28621	-5.0874	6.8447	763.666	-53.7693	290.6203	51.827	792.8469	-0.0592	0.0182	-0.0073	-0.0462	0.0165	0.9585
1.5899	-0.31989	-7.0254	-0.092377	2.5756	-0.098504	-7.8816	10.2834	755.4209	-53.439	287.5208	49.7901	780.2504	-0.0592	0.0182	-0.0073	-0.0462	0.0165	0.9585
1.6027	0.23225	-9.3626	-0.26617	3.4178	0.30348	-10.6014	13.693	746.0051	-53.1276	283.9109	47.7755	766.6669	-0.0592	0.0182	-0.0073	-0.0462	0.0165	0.9585
1.6155	1.2523	-10.8992	-0.53659	3.9557	0.99013	-12.4436	17.0796	736.081	-52.9128	280.0235	45.8569	752.7982	-0.0592	0.0182	-0.0073	-0.0462	0.0165	0.9585
1.6283	2.8795	-10.5565	-0.92266	3.7924	2.0315	-12.1732	20.4556	726.2744	-52.882	276.0798	44.1174	739.3084	-0.0592	0.0182	-0.0073	-0.0462	0.0165	0.9585
1.6411	5.1986	-6.8047	-1.4242	2.3694	3.4599	-8.0306	23.805	716.9353	-53.0797	272.2072	42.6107	726.5925	-0.0592	0.0182	-0.0073	-0.0462	0.0165	0.9585
1.6539	8.2177	2.3104	-2.0161	-1.0222	5.2451	2.2243	27.0271	707.9607	-53.5087	268.3725	41.3822	714.6123	-0.0592	0.0182	-0.0073	-0.0462	0.0165	0.9585
1.6666	11.7315	19.0067	-2.6254	-7.1813	7.2273	21.1668	29.9554	698.6851	-54.0727	264.3386	40.4155	702.7855	-0.0592	0.0182	-0.0073	-0.0462	0.0165	0.9585
1.6794	15.2463	45.412	-3.1141	-16.8689	9.0596	51.2863	32.3482	687.8461	-54.6061	259.6543	39.6587	689.9432	-0.0592	0.0182	-0.0073	-0.0462	0.0165	0.9585
1.6922	17.8407	82.9621	-3.2478	-30.5837	10.1266	94.3162	33.9389	673.727	-54.8578	253.7072	38.9854	674.4536	-0.0592	0.0182	-0.0073	-0.0462	0.0165	0.9585
1.705	18.1614	131.4968	-2.6917	-48.2348	9.5378	150.1809	34.5101	654.4531	-54.5455	245.8302	38.2183	654.5009	-0.0592	0.0182	-0.0073	-0.0462	0.0165	0.9585
1.7178	14.9894	188.6052	-1.0334	-68.8973	6.375	216.2356	33.9383	628.4588	-53.3891	235.4734	37.1397	628.5259	-0.0592	0.0182	-0.0073	-0.0462	0.0165	0.9585
